solid Paul - Kühlschrankscharnier
facet normal 0.0 0.0 -1.0
  outer loop
    vertex 8.400000000000018 8.39999999999999 5.009266748153425e-30
    vertex 0.0 0.0 5.009266748153425e-30
    vertex 0.0 8.39999999999999 5.009266748153425e-30
  endloop
endfacet
facet normal 0.0 0.0 -1.0
  outer loop
    vertex 0.0 0.0 5.009266748153425e-30
    vertex 8.400000000000018 8.39999999999999 5.009266748153425e-30
    vertex 8.400000000000018 0.0 5.009266748153425e-30
  endloop
endfacet
facet normal 0.0 -1.0 0.0
  outer loop
    vertex 8.400000000000018 0.0 12.999999999999998
    vertex 0.0 0.0 5.009266748153425e-30
    vertex 8.400000000000018 0.0 5.009266748153425e-30
  endloop
endfacet
facet normal 0.0 -1.0 0.0
  outer loop
    vertex 0.0 0.0 5.009266748153425e-30
    vertex 8.400000000000018 0.0 12.999999999999998
    vertex 0.0 0.0 12.999999999999998
  endloop
endfacet
facet normal -1.0 0.0 0.0
  outer loop
    vertex 0.0 8.39999999999999 12.999999999999998
    vertex 0.0 0.0 5.009266748153425e-30
    vertex 0.0 0.0 12.999999999999998
  endloop
endfacet
facet normal -1.0 0.0 0.0
  outer loop
    vertex 0.0 0.0 5.009266748153425e-30
    vertex 0.0 8.39999999999999 12.999999999999998
    vertex 0.0 8.39999999999999 5.009266748153425e-30
  endloop
endfacet
facet normal -0.0 1.0 -0.0
  outer loop
    vertex 0.0 8.39999999999999 12.999999999999998
    vertex 8.400000000000018 8.39999999999999 5.009266748153425e-30
    vertex 0.0 8.39999999999999 5.009266748153425e-30
  endloop
endfacet
facet normal -0.0 1.0 -0.0
  outer loop
    vertex 8.400000000000018 8.39999999999999 5.009266748153425e-30
    vertex 0.0 8.39999999999999 12.999999999999998
    vertex 8.400000000000018 8.39999999999999 12.999999999999998
  endloop
endfacet
facet normal 1.0 -0.0 -0.0
  outer loop
    vertex 8.400000000000018 8.39999999999999 5.009266748153425e-30
    vertex 8.400000000000018 0.0 12.999999999999998
    vertex 8.400000000000018 0.0 5.009266748153425e-30
  endloop
endfacet
facet normal 1.0 -0.0 -0.0
  outer loop
    vertex 8.400000000000018 0.0 12.999999999999998
    vertex 8.400000000000018 8.39999999999999 5.009266748153425e-30
    vertex 8.400000000000018 8.39999999999999 12.999999999999998
  endloop
endfacet
facet normal 0.0 0.0 -1.0
  outer loop
    vertex -2.5614807840234897 6.011733315717618 12.999999999999998
    vertex -2.561480784023478 2.3882666842823665 12.999999999999998
    vertex -2.800000000000006 4.200000000000015 12.999999999999998
  endloop
endfacet
facet normal 0.0 0.0 -1.0
  outer loop
    vertex -2.561480784023478 2.3882666842823665 12.999999999999998
    vertex -2.5614807840234897 6.011733315717618 12.999999999999998
    vertex -1.8621778264910762 7.699999999999991 12.999999999999998
  endloop
endfacet
facet normal 0.0 0.0 -1.0
  outer loop
    vertex -2.561480784023478 2.3882666842823665 12.999999999999998
    vertex -1.8621778264910762 7.699999999999991 12.999999999999998
    vertex -1.8621778264910762 0.6999999999999817 12.999999999999998
  endloop
endfacet
facet normal 0.0 0.0 -1.0
  outer loop
    vertex -1.8621778264910762 0.6999999999999817 12.999999999999998
    vertex -1.8621778264910762 7.699999999999991 12.999999999999998
    vertex -0.7497474683058414 9.14974746830582 12.999999999999998
  endloop
endfacet
facet normal 0.0 0.0 -1.0
  outer loop
    vertex -1.8621778264910762 0.6999999999999817 12.999999999999998
    vertex -0.7497474683058414 9.14974746830582 12.999999999999998
    vertex -0.7497474683058414 -0.7497474683058414 12.999999999999998
  endloop
endfacet
facet normal 0.0 0.0 -1.0
  outer loop
    vertex -0.7497474683058414 -0.7497474683058414 12.999999999999998
    vertex -0.7497474683058414 9.14974746830582 12.999999999999998
    vertex 0.0 8.39999999999999 12.999999999999998
  endloop
endfacet
facet normal 0.0 0.0 -1.0
  outer loop
    vertex 0.0 8.39999999999999 12.999999999999998
    vertex -0.7497474683058414 9.14974746830582 12.999999999999998
    vertex 0.6999999999999874 10.262177826491055 12.999999999999998
  endloop
endfacet
facet normal 0.0 0.0 -1.0
  outer loop
    vertex 0.0 8.39999999999999 12.999999999999998
    vertex 0.6999999999999874 10.262177826491055 12.999999999999998
    vertex 8.400000000000018 8.39999999999999 12.999999999999998
  endloop
endfacet
facet normal 0.0 0.0 -1.0
  outer loop
    vertex 8.400000000000018 8.39999999999999 12.999999999999998
    vertex 0.6999999999999874 10.262177826491055 12.999999999999998
    vertex 2.3882666842823386 10.961480784023463 12.999999999999998
  endloop
endfacet
facet normal 0.0 0.0 -1.0
  outer loop
    vertex 8.400000000000018 8.39999999999999 12.999999999999998
    vertex 2.3882666842823386 10.961480784023463 12.999999999999998
    vertex 4.199999999999987 11.19999999999998 12.999999999999998
  endloop
endfacet
facet normal 0.0 0.0 -1.0
  outer loop
    vertex 8.400000000000018 8.39999999999999 12.999999999999998
    vertex 4.199999999999987 11.19999999999998 12.999999999999998
    vertex 6.01173331571764 10.961480784023463 12.999999999999998
  endloop
endfacet
facet normal 0.0 0.0 -1.0
  outer loop
    vertex 8.400000000000018 8.39999999999999 12.999999999999998
    vertex 6.01173331571764 10.961480784023463 12.999999999999998
    vertex 7.699999999999991 10.262177826491055 12.999999999999998
  endloop
endfacet
facet normal 0.0 0.0 -1.0
  outer loop
    vertex 8.400000000000018 8.39999999999999 12.999999999999998
    vertex 7.699999999999991 10.262177826491055 12.999999999999998
    vertex 9.149747468305826 9.14974746830582 12.999999999999998
  endloop
endfacet
facet normal 0.0 0.0 -1.0
  outer loop
    vertex 8.400000000000018 8.39999999999999 12.999999999999998
    vertex 9.149747468305826 9.14974746830582 12.999999999999998
    vertex 8.400000000000018 0.0 12.999999999999998
  endloop
endfacet
facet normal 0.0 0.0 -1.0
  outer loop
    vertex -0.7497474683058414 -0.7497474683058414 12.999999999999998
    vertex 0.0 0.0 12.999999999999998
    vertex 0.6999999999999987 -1.8621778264910762 12.999999999999998
  endloop
endfacet
facet normal 0.0 0.0 -1.0
  outer loop
    vertex 0.0 0.0 12.999999999999998
    vertex -0.7497474683058414 -0.7497474683058414 12.999999999999998
    vertex 0.0 8.39999999999999 12.999999999999998
  endloop
endfacet
facet normal 0.0 0.0 -1.0
  outer loop
    vertex 0.6999999999999987 -1.8621778264910762 12.999999999999998
    vertex 0.0 0.0 12.999999999999998
    vertex 8.400000000000018 0.0 12.999999999999998
  endloop
endfacet
facet normal 0.0 0.0 -1.0
  outer loop
    vertex 0.6999999999999987 -1.8621778264910762 12.999999999999998
    vertex 8.400000000000018 0.0 12.999999999999998
    vertex 2.3882666842823386 -2.561480784023478 12.999999999999998
  endloop
endfacet
facet normal 0.0 0.0 -1.0
  outer loop
    vertex 2.3882666842823386 -2.561480784023478 12.999999999999998
    vertex 8.400000000000018 0.0 12.999999999999998
    vertex 4.199999999999987 -2.800000000000006 12.999999999999998
  endloop
endfacet
facet normal 0.0 0.0 -1.0
  outer loop
    vertex 4.199999999999987 -2.800000000000006 12.999999999999998
    vertex 8.400000000000018 0.0 12.999999999999998
    vertex 6.01173331571764 -2.561480784023478 12.999999999999998
  endloop
endfacet
facet normal 0.0 0.0 -1.0
  outer loop
    vertex 6.01173331571764 -2.561480784023478 12.999999999999998
    vertex 8.400000000000018 0.0 12.999999999999998
    vertex 7.700000000000014 -1.8621778264910762 12.999999999999998
  endloop
endfacet
facet normal 0.0 0.0 -1.0
  outer loop
    vertex 7.700000000000014 -1.8621778264910762 12.999999999999998
    vertex 8.400000000000018 0.0 12.999999999999998
    vertex 9.149747468305826 -0.7497474683058414 12.999999999999998
  endloop
endfacet
facet normal 0.0 0.0 -1.0
  outer loop
    vertex 9.149747468305826 -0.7497474683058414 12.999999999999998
    vertex 8.400000000000018 0.0 12.999999999999998
    vertex 9.149747468305826 9.14974746830582 12.999999999999998
  endloop
endfacet
facet normal 0.0 0.0 -1.0
  outer loop
    vertex 9.149747468305826 -0.7497474683058414 12.999999999999998
    vertex 9.149747468305826 9.14974746830582 12.999999999999998
    vertex 10.262177826491062 7.699999999999991 12.999999999999998
  endloop
endfacet
facet normal 0.0 0.0 -1.0
  outer loop
    vertex 9.149747468305826 -0.7497474683058414 12.999999999999998
    vertex 10.262177826491062 7.699999999999991 12.999999999999998
    vertex 10.262177826491062 0.7000000000000044 12.999999999999998
  endloop
endfacet
facet normal 0.0 0.0 -1.0
  outer loop
    vertex 10.262177826491062 0.7000000000000044 12.999999999999998
    vertex 10.262177826491062 7.699999999999991 12.999999999999998
    vertex 10.961480784023474 6.01173331571764 12.999999999999998
  endloop
endfacet
facet normal 0.0 0.0 -1.0
  outer loop
    vertex 10.262177826491062 0.7000000000000044 12.999999999999998
    vertex 10.961480784023474 6.01173331571764 12.999999999999998
    vertex 10.961480784023474 2.3882666842823665 12.999999999999998
  endloop
endfacet
facet normal 0.0 0.0 -1.0
  outer loop
    vertex 10.961480784023474 2.3882666842823665 12.999999999999998
    vertex 10.961480784023474 6.01173331571764 12.999999999999998
    vertex 11.19999999999999 4.200000000000015 12.999999999999998
  endloop
endfacet
facet normal -0.0 -0.0 1.0
  outer loop
    vertex 0.6999999999999987 -1.8621778264910762 17.999999999999996
    vertex 1.5437039777050583 3.488247625968069 17.999999999999996
    vertex 1.4499999999999973 4.200000000000015 17.999999999999996
  endloop
endfacet
facet normal -0.0 -0.0 1.0
  outer loop
    vertex 1.5437039777050583 3.488247625968069 17.999999999999996
    vertex 0.6999999999999987 -1.8621778264910762 17.999999999999996
    vertex 2.3882666842823386 -2.561480784023478 17.999999999999996
  endloop
endfacet
facet normal -0.0 -0.0 1.0
  outer loop
    vertex 1.5437039777050583 3.488247625968069 17.999999999999996
    vertex 2.3882666842823386 -2.561480784023478 17.999999999999996
    vertex 1.8184301395927889 2.8250000000000117 17.999999999999996
  endloop
endfacet
facet normal -0.0 -0.0 1.0
  outer loop
    vertex 1.8184301395927889 2.8250000000000117 17.999999999999996
    vertex 2.3882666842823386 -2.561480784023478 17.999999999999996
    vertex 2.255456351736987 2.2554563517370156 17.999999999999996
  endloop
endfacet
facet normal -0.0 -0.0 1.0
  outer loop
    vertex 2.255456351736987 2.2554563517370156 17.999999999999996
    vertex 2.3882666842823386 -2.561480784023478 17.999999999999996
    vertex 2.825000000000006 1.8184301395928057 17.999999999999996
  endloop
endfacet
facet normal -0.0 -0.0 1.0
  outer loop
    vertex 2.825000000000006 1.8184301395928057 17.999999999999996
    vertex 2.3882666842823386 -2.561480784023478 17.999999999999996
    vertex 4.199999999999987 -2.800000000000006 17.999999999999996
  endloop
endfacet
facet normal -0.0 -0.0 1.0
  outer loop
    vertex 2.825000000000006 1.8184301395928057 17.999999999999996
    vertex 4.199999999999987 -2.800000000000006 17.999999999999996
    vertex 3.488247625968063 1.5437039777050583 17.999999999999996
  endloop
endfacet
facet normal -0.0 -0.0 1.0
  outer loop
    vertex 3.488247625968063 1.5437039777050583 17.999999999999996
    vertex 4.199999999999987 -2.800000000000006 17.999999999999996
    vertex 4.199999999999987 1.4499999999999973 17.999999999999996
  endloop
endfacet
facet normal -0.0 -0.0 1.0
  outer loop
    vertex 4.199999999999987 1.4499999999999973 17.999999999999996
    vertex 4.199999999999987 -2.800000000000006 17.999999999999996
    vertex 6.01173331571764 -2.561480784023478 17.999999999999996
  endloop
endfacet
facet normal -0.0 -0.0 1.0
  outer loop
    vertex 4.199999999999987 1.4499999999999973 17.999999999999996
    vertex 6.01173331571764 -2.561480784023478 17.999999999999996
    vertex 4.911752374031939 1.5437039777050583 17.999999999999996
  endloop
endfacet
facet normal -0.0 -0.0 1.0
  outer loop
    vertex 4.911752374031939 1.5437039777050583 17.999999999999996
    vertex 6.01173331571764 -2.561480784023478 17.999999999999996
    vertex 5.574999999999996 1.8184301395928057 17.999999999999996
  endloop
endfacet
facet normal -0.0 -0.0 1.0
  outer loop
    vertex 5.574999999999996 1.8184301395928057 17.999999999999996
    vertex 6.01173331571764 -2.561480784023478 17.999999999999996
    vertex 6.144543648262991 2.2554563517370156 17.999999999999996
  endloop
endfacet
facet normal -0.0 -0.0 1.0
  outer loop
    vertex 6.144543648262991 2.2554563517370156 17.999999999999996
    vertex 6.01173331571764 -2.561480784023478 17.999999999999996
    vertex 7.700000000000014 -1.8621778264910762 17.999999999999996
  endloop
endfacet
facet normal -0.0 -0.0 1.0
  outer loop
    vertex 6.144543648262991 2.2554563517370156 17.999999999999996
    vertex 7.700000000000014 -1.8621778264910762 17.999999999999996
    vertex 6.581569860407196 2.8250000000000117 17.999999999999996
  endloop
endfacet
facet normal -0.0 -0.0 1.0
  outer loop
    vertex 6.581569860407196 2.8250000000000117 17.999999999999996
    vertex 7.700000000000014 -1.8621778264910762 17.999999999999996
    vertex 6.856296022294938 3.488247625968069 17.999999999999996
  endloop
endfacet
facet normal -0.0 -0.0 1.0
  outer loop
    vertex 6.856296022294938 3.488247625968069 17.999999999999996
    vertex 7.700000000000014 -1.8621778264910762 17.999999999999996
    vertex 6.950000000000005 4.200000000000015 17.999999999999996
  endloop
endfacet
facet normal -0.0 -0.0 1.0
  outer loop
    vertex 6.950000000000005 4.200000000000015 17.999999999999996
    vertex 7.700000000000014 -1.8621778264910762 17.999999999999996
    vertex 7.699999999999991 10.262177826491055 17.999999999999996
  endloop
endfacet
facet normal -0.0 -0.0 1.0
  outer loop
    vertex 7.699999999999991 10.262177826491055 17.999999999999996
    vertex 7.700000000000014 -1.8621778264910762 17.999999999999996
    vertex 9.149747468305826 9.14974746830582 17.999999999999996
  endloop
endfacet
facet normal -0.0 -0.0 1.0
  outer loop
    vertex 9.149747468305826 9.14974746830582 17.999999999999996
    vertex 7.700000000000014 -1.8621778264910762 17.999999999999996
    vertex 9.149747468305826 -0.7497474683058414 17.999999999999996
  endloop
endfacet
facet normal -0.0 -0.0 1.0
  outer loop
    vertex 9.149747468305826 9.14974746830582 17.999999999999996
    vertex 9.149747468305826 -0.7497474683058414 17.999999999999996
    vertex 10.262177826491062 0.7000000000000044 17.999999999999996
  endloop
endfacet
facet normal -0.0 -0.0 1.0
  outer loop
    vertex 9.149747468305826 9.14974746830582 17.999999999999996
    vertex 10.262177826491062 0.7000000000000044 17.999999999999996
    vertex 10.262177826491062 7.699999999999991 17.999999999999996
  endloop
endfacet
facet normal -0.0 -0.0 1.0
  outer loop
    vertex 10.262177826491062 7.699999999999991 17.999999999999996
    vertex 10.262177826491062 0.7000000000000044 17.999999999999996
    vertex 10.961480784023474 2.3882666842823665 17.999999999999996
  endloop
endfacet
facet normal -0.0 -0.0 1.0
  outer loop
    vertex 10.262177826491062 7.699999999999991 17.999999999999996
    vertex 10.961480784023474 2.3882666842823665 17.999999999999996
    vertex 10.961480784023474 6.01173331571764 17.999999999999996
  endloop
endfacet
facet normal -0.0 -0.0 1.0
  outer loop
    vertex 10.961480784023474 6.01173331571764 17.999999999999996
    vertex 10.961480784023474 2.3882666842823665 17.999999999999996
    vertex 11.19999999999999 4.200000000000015 17.999999999999996
  endloop
endfacet
facet normal -0.0 -0.0 1.0
  outer loop
    vertex -2.561480784023478 2.3882666842823665 17.999999999999996
    vertex -2.5614807840234897 6.011733315717618 17.999999999999996
    vertex -2.800000000000006 4.200000000000015 17.999999999999996
  endloop
endfacet
facet normal -0.0 -0.0 1.0
  outer loop
    vertex -2.5614807840234897 6.011733315717618 17.999999999999996
    vertex -2.561480784023478 2.3882666842823665 17.999999999999996
    vertex -1.8621778264910762 7.699999999999991 17.999999999999996
  endloop
endfacet
facet normal -0.0 -0.0 1.0
  outer loop
    vertex -1.8621778264910762 7.699999999999991 17.999999999999996
    vertex -2.561480784023478 2.3882666842823665 17.999999999999996
    vertex -1.8621778264910762 0.6999999999999817 17.999999999999996
  endloop
endfacet
facet normal -0.0 -0.0 1.0
  outer loop
    vertex -1.8621778264910762 7.699999999999991 17.999999999999996
    vertex -1.8621778264910762 0.6999999999999817 17.999999999999996
    vertex -0.7497474683058414 -0.7497474683058414 17.999999999999996
  endloop
endfacet
facet normal -0.0 -0.0 1.0
  outer loop
    vertex -1.8621778264910762 7.699999999999991 17.999999999999996
    vertex -0.7497474683058414 -0.7497474683058414 17.999999999999996
    vertex -0.7497474683058414 9.14974746830582 17.999999999999996
  endloop
endfacet
facet normal -0.0 -0.0 1.0
  outer loop
    vertex -0.7497474683058414 9.14974746830582 17.999999999999996
    vertex -0.7497474683058414 -0.7497474683058414 17.999999999999996
    vertex 0.6999999999999987 -1.8621778264910762 17.999999999999996
  endloop
endfacet
facet normal -0.0 -0.0 1.0
  outer loop
    vertex -0.7497474683058414 9.14974746830582 17.999999999999996
    vertex 0.6999999999999987 -1.8621778264910762 17.999999999999996
    vertex 0.6999999999999874 10.262177826491055 17.999999999999996
  endloop
endfacet
facet normal -0.0 -0.0 1.0
  outer loop
    vertex 0.6999999999999874 10.262177826491055 17.999999999999996
    vertex 0.6999999999999987 -1.8621778264910762 17.999999999999996
    vertex 1.4499999999999973 4.200000000000015 17.999999999999996
  endloop
endfacet
facet normal -0.0 -0.0 1.0
  outer loop
    vertex 0.6999999999999874 10.262177826491055 17.999999999999996
    vertex 1.4499999999999973 4.200000000000015 17.999999999999996
    vertex 1.5437039777050583 4.911752374031939 17.999999999999996
  endloop
endfacet
facet normal -0.0 -0.0 1.0
  outer loop
    vertex 0.6999999999999874 10.262177826491055 17.999999999999996
    vertex 1.5437039777050583 4.911752374031939 17.999999999999996
    vertex 2.3882666842823386 10.961480784023463 17.999999999999996
  endloop
endfacet
facet normal -0.0 -0.0 1.0
  outer loop
    vertex 2.3882666842823386 10.961480784023463 17.999999999999996
    vertex 1.5437039777050583 4.911752374031939 17.999999999999996
    vertex 1.8184301395927889 5.574999999999973 17.999999999999996
  endloop
endfacet
facet normal -0.0 -0.0 1.0
  outer loop
    vertex 2.3882666842823386 10.961480784023463 17.999999999999996
    vertex 1.8184301395927889 5.574999999999973 17.999999999999996
    vertex 2.255456351736987 6.144543648262991 17.999999999999996
  endloop
endfacet
facet normal -0.0 -0.0 1.0
  outer loop
    vertex 2.3882666842823386 10.961480784023463 17.999999999999996
    vertex 2.255456351736987 6.144543648262991 17.999999999999996
    vertex 2.8249999999999837 6.581569860407196 17.999999999999996
  endloop
endfacet
facet normal -0.0 -0.0 1.0
  outer loop
    vertex 2.3882666842823386 10.961480784023463 17.999999999999996
    vertex 2.8249999999999837 6.581569860407196 17.999999999999996
    vertex 4.199999999999987 11.19999999999998 17.999999999999996
  endloop
endfacet
facet normal -0.0 -0.0 1.0
  outer loop
    vertex 4.199999999999987 11.19999999999998 17.999999999999996
    vertex 2.8249999999999837 6.581569860407196 17.999999999999996
    vertex 3.488247625968063 6.856296022294915 17.999999999999996
  endloop
endfacet
facet normal -0.0 -0.0 1.0
  outer loop
    vertex 4.199999999999987 11.19999999999998 17.999999999999996
    vertex 3.488247625968063 6.856296022294915 17.999999999999996
    vertex 4.199999999999987 6.9499999999999815 17.999999999999996
  endloop
endfacet
facet normal -0.0 -0.0 1.0
  outer loop
    vertex 4.199999999999987 11.19999999999998 17.999999999999996
    vertex 4.199999999999987 6.9499999999999815 17.999999999999996
    vertex 4.911752374031939 6.856296022294915 17.999999999999996
  endloop
endfacet
facet normal -0.0 -0.0 1.0
  outer loop
    vertex 4.199999999999987 11.19999999999998 17.999999999999996
    vertex 4.911752374031939 6.856296022294915 17.999999999999996
    vertex 6.01173331571764 10.961480784023463 17.999999999999996
  endloop
endfacet
facet normal -0.0 -0.0 1.0
  outer loop
    vertex 6.01173331571764 10.961480784023463 17.999999999999996
    vertex 4.911752374031939 6.856296022294915 17.999999999999996
    vertex 5.574999999999996 6.581569860407196 17.999999999999996
  endloop
endfacet
facet normal -0.0 -0.0 1.0
  outer loop
    vertex 6.01173331571764 10.961480784023463 17.999999999999996
    vertex 5.574999999999996 6.581569860407196 17.999999999999996
    vertex 6.144543648262991 6.144543648262991 17.999999999999996
  endloop
endfacet
facet normal -0.0 -0.0 1.0
  outer loop
    vertex 6.01173331571764 10.961480784023463 17.999999999999996
    vertex 6.144543648262991 6.144543648262991 17.999999999999996
    vertex 7.699999999999991 10.262177826491055 17.999999999999996
  endloop
endfacet
facet normal -0.0 -0.0 1.0
  outer loop
    vertex 7.699999999999991 10.262177826491055 17.999999999999996
    vertex 6.144543648262991 6.144543648262991 17.999999999999996
    vertex 6.581569860407196 5.574999999999996 17.999999999999996
  endloop
endfacet
facet normal -0.0 -0.0 1.0
  outer loop
    vertex 7.699999999999991 10.262177826491055 17.999999999999996
    vertex 6.581569860407196 5.574999999999996 17.999999999999996
    vertex 6.856296022294938 4.911752374031939 17.999999999999996
  endloop
endfacet
facet normal -0.0 -0.0 1.0
  outer loop
    vertex 7.699999999999991 10.262177826491055 17.999999999999996
    vertex 6.856296022294938 4.911752374031939 17.999999999999996
    vertex 6.950000000000005 4.200000000000015 17.999999999999996
  endloop
endfacet
facet normal 0.6087614290087191 0.7933533402912364 -0.0
  outer loop
    vertex 7.699999999999991 10.262177826491055 17.999999999999996
    vertex 9.149747468305826 9.14974746830582 12.999999999999998
    vertex 7.699999999999991 10.262177826491055 12.999999999999998
  endloop
endfacet
facet normal 0.6087614290087191 0.7933533402912364 -0.0
  outer loop
    vertex 9.149747468305826 9.14974746830582 12.999999999999998
    vertex 7.699999999999991 10.262177826491055 17.999999999999996
    vertex 9.149747468305826 9.14974746830582 17.999999999999996
  endloop
endfacet
facet normal 0.38268343236509056 0.9238795325112865 -0.0
  outer loop
    vertex 6.01173331571764 10.961480784023463 17.999999999999996
    vertex 7.699999999999991 10.262177826491055 12.999999999999998
    vertex 6.01173331571764 10.961480784023463 12.999999999999998
  endloop
endfacet
facet normal 0.38268343236509056 0.9238795325112865 -0.0
  outer loop
    vertex 7.699999999999991 10.262177826491055 12.999999999999998
    vertex 6.01173331571764 10.961480784023463 17.999999999999996
    vertex 7.699999999999991 10.262177826491055 17.999999999999996
  endloop
endfacet
facet normal 0.13052619222004813 0.9914448613738109 -0.0
  outer loop
    vertex 4.199999999999987 11.19999999999998 17.999999999999996
    vertex 6.01173331571764 10.961480784023463 12.999999999999998
    vertex 4.199999999999987 11.19999999999998 12.999999999999998
  endloop
endfacet
facet normal 0.13052619222004813 0.9914448613738109 -0.0
  outer loop
    vertex 6.01173331571764 10.961480784023463 12.999999999999998
    vertex 4.199999999999987 11.19999999999998 17.999999999999996
    vertex 6.01173331571764 10.961480784023463 17.999999999999996
  endloop
endfacet
facet normal -0.13052619222004852 0.9914448613738109 -0.0
  outer loop
    vertex 2.3882666842823386 10.961480784023463 17.999999999999996
    vertex 4.199999999999987 11.19999999999998 12.999999999999998
    vertex 2.3882666842823386 10.961480784023463 12.999999999999998
  endloop
endfacet
facet normal -0.13052619222004852 0.9914448613738109 -0.0
  outer loop
    vertex 4.199999999999987 11.19999999999998 12.999999999999998
    vertex 2.3882666842823386 10.961480784023463 17.999999999999996
    vertex 4.199999999999987 11.19999999999998 17.999999999999996
  endloop
endfacet
facet normal -0.38268343236509056 0.9238795325112865 -0.0
  outer loop
    vertex 0.6999999999999874 10.262177826491055 17.999999999999996
    vertex 2.3882666842823386 10.961480784023463 12.999999999999998
    vertex 0.6999999999999874 10.262177826491055 12.999999999999998
  endloop
endfacet
facet normal -0.38268343236509056 0.9238795325112865 -0.0
  outer loop
    vertex 2.3882666842823386 10.961480784023463 12.999999999999998
    vertex 0.6999999999999874 10.262177826491055 17.999999999999996
    vertex 2.3882666842823386 10.961480784023463 17.999999999999996
  endloop
endfacet
facet normal -0.6087614290087207 0.7933533402912354 -0.0
  outer loop
    vertex -0.7497474683058414 9.14974746830582 17.999999999999996
    vertex 0.6999999999999874 10.262177826491055 12.999999999999998
    vertex -0.7497474683058414 9.14974746830582 12.999999999999998
  endloop
endfacet
facet normal -0.6087614290087207 0.7933533402912354 -0.0
  outer loop
    vertex 0.6999999999999874 10.262177826491055 12.999999999999998
    vertex -0.7497474683058414 9.14974746830582 17.999999999999996
    vertex 0.6999999999999874 10.262177826491055 17.999999999999996
  endloop
endfacet
facet normal -0.7933533402912354 0.6087614290087207 0.0
  outer loop
    vertex -0.7497474683058414 9.14974746830582 17.999999999999996
    vertex -1.8621778264910762 7.699999999999991 12.999999999999998
    vertex -1.8621778264910762 7.699999999999991 17.999999999999996
  endloop
endfacet
facet normal -0.7933533402912354 0.6087614290087207 0.0
  outer loop
    vertex -1.8621778264910762 7.699999999999991 12.999999999999998
    vertex -0.7497474683058414 9.14974746830582 17.999999999999996
    vertex -0.7497474683058414 9.14974746830582 12.999999999999998
  endloop
endfacet
facet normal -0.9238795325112873 0.3826834323650888 0.0
  outer loop
    vertex -1.8621778264910762 7.699999999999991 17.999999999999996
    vertex -2.5614807840234897 6.011733315717618 12.999999999999998
    vertex -2.5614807840234897 6.011733315717618 17.999999999999996
  endloop
endfacet
facet normal -0.9238795325112873 0.3826834323650888 0.0
  outer loop
    vertex -2.5614807840234897 6.011733315717618 12.999999999999998
    vertex -1.8621778264910762 7.699999999999991 17.999999999999996
    vertex -1.8621778264910762 7.699999999999991 12.999999999999998
  endloop
endfacet
facet normal -0.9914448613738105 0.13052619222005174 0.0
  outer loop
    vertex -2.5614807840234897 6.011733315717618 17.999999999999996
    vertex -2.800000000000006 4.200000000000015 12.999999999999998
    vertex -2.800000000000006 4.200000000000015 17.999999999999996
  endloop
endfacet
facet normal -0.9914448613738105 0.13052619222005174 0.0
  outer loop
    vertex -2.800000000000006 4.200000000000015 12.999999999999998
    vertex -2.5614807840234897 6.011733315717618 17.999999999999996
    vertex -2.5614807840234897 6.011733315717618 12.999999999999998
  endloop
endfacet
facet normal -0.99144486137381 -0.13052619222005457 0.0
  outer loop
    vertex -2.800000000000006 4.200000000000015 17.999999999999996
    vertex -2.561480784023478 2.3882666842823665 12.999999999999998
    vertex -2.561480784023478 2.3882666842823665 17.999999999999996
  endloop
endfacet
facet normal -0.99144486137381 -0.13052619222005457 0.0
  outer loop
    vertex -2.561480784023478 2.3882666842823665 12.999999999999998
    vertex -2.800000000000006 4.200000000000015 17.999999999999996
    vertex -2.800000000000006 4.200000000000015 12.999999999999998
  endloop
endfacet
facet normal -0.9238795325112903 -0.3826834323650814 0.0
  outer loop
    vertex -2.561480784023478 2.3882666842823665 17.999999999999996
    vertex -1.8621778264910762 0.6999999999999817 12.999999999999998
    vertex -1.8621778264910762 0.6999999999999817 17.999999999999996
  endloop
endfacet
facet normal -0.9238795325112903 -0.3826834323650814 0.0
  outer loop
    vertex -1.8621778264910762 0.6999999999999817 12.999999999999998
    vertex -2.561480784023478 2.3882666842823665 17.999999999999996
    vertex -2.561480784023478 2.3882666842823665 12.999999999999998
  endloop
endfacet
facet normal -0.7933533402912342 -0.6087614290087221 0.0
  outer loop
    vertex -1.8621778264910762 0.6999999999999817 17.999999999999996
    vertex -0.7497474683058414 -0.7497474683058414 12.999999999999998
    vertex -0.7497474683058414 -0.7497474683058414 17.999999999999996
  endloop
endfacet
facet normal -0.7933533402912342 -0.6087614290087221 0.0
  outer loop
    vertex -0.7497474683058414 -0.7497474683058414 12.999999999999998
    vertex -1.8621778264910762 0.6999999999999817 17.999999999999996
    vertex -1.8621778264910762 0.6999999999999817 12.999999999999998
  endloop
endfacet
facet normal -0.6087614290087177 -0.7933533402912377 0.0
  outer loop
    vertex 0.6999999999999987 -1.8621778264910762 17.999999999999996
    vertex -0.7497474683058414 -0.7497474683058414 12.999999999999998
    vertex 0.6999999999999987 -1.8621778264910762 12.999999999999998
  endloop
endfacet
facet normal -0.6087614290087177 -0.7933533402912377 0.0
  outer loop
    vertex -0.7497474683058414 -0.7497474683058414 12.999999999999998
    vertex 0.6999999999999987 -1.8621778264910762 17.999999999999996
    vertex -0.7497474683058414 -0.7497474683058414 17.999999999999996
  endloop
endfacet
facet normal -0.3826834323650901 -0.9238795325112867 0.0
  outer loop
    vertex 2.3882666842823386 -2.561480784023478 17.999999999999996
    vertex 0.6999999999999987 -1.8621778264910762 12.999999999999998
    vertex 2.3882666842823386 -2.561480784023478 12.999999999999998
  endloop
endfacet
facet normal -0.3826834323650901 -0.9238795325112867 0.0
  outer loop
    vertex 0.6999999999999987 -1.8621778264910762 12.999999999999998
    vertex 2.3882666842823386 -2.561480784023478 17.999999999999996
    vertex 0.6999999999999987 -1.8621778264910762 17.999999999999996
  endloop
endfacet
facet normal -0.13052619222005457 -0.99144486137381 0.0
  outer loop
    vertex 4.199999999999987 -2.800000000000006 17.999999999999996
    vertex 2.3882666842823386 -2.561480784023478 12.999999999999998
    vertex 4.199999999999987 -2.800000000000006 12.999999999999998
  endloop
endfacet
facet normal -0.13052619222005457 -0.99144486137381 0.0
  outer loop
    vertex 2.3882666842823386 -2.561480784023478 12.999999999999998
    vertex 4.199999999999987 -2.800000000000006 17.999999999999996
    vertex 2.3882666842823386 -2.561480784023478 17.999999999999996
  endloop
endfacet
facet normal 0.13052619222005418 -0.99144486137381 0.0
  outer loop
    vertex 6.01173331571764 -2.561480784023478 17.999999999999996
    vertex 4.199999999999987 -2.800000000000006 12.999999999999998
    vertex 6.01173331571764 -2.561480784023478 12.999999999999998
  endloop
endfacet
facet normal 0.13052619222005418 -0.99144486137381 0.0
  outer loop
    vertex 4.199999999999987 -2.800000000000006 12.999999999999998
    vertex 6.01173331571764 -2.561480784023478 17.999999999999996
    vertex 4.199999999999987 -2.800000000000006 17.999999999999996
  endloop
endfacet
facet normal 0.3826834323650835 -0.9238795325112894 0.0
  outer loop
    vertex 7.700000000000014 -1.8621778264910762 17.999999999999996
    vertex 6.01173331571764 -2.561480784023478 12.999999999999998
    vertex 7.700000000000014 -1.8621778264910762 12.999999999999998
  endloop
endfacet
facet normal 0.3826834323650835 -0.9238795325112894 0.0
  outer loop
    vertex 6.01173331571764 -2.561480784023478 12.999999999999998
    vertex 7.700000000000014 -1.8621778264910762 17.999999999999996
    vertex 6.01173331571764 -2.561480784023478 17.999999999999996
  endloop
endfacet
facet normal 0.6087614290087251 -0.7933533402912317 0.0
  outer loop
    vertex 9.149747468305826 -0.7497474683058414 17.999999999999996
    vertex 7.700000000000014 -1.8621778264910762 12.999999999999998
    vertex 9.149747468305826 -0.7497474683058414 12.999999999999998
  endloop
endfacet
facet normal 0.6087614290087251 -0.7933533402912317 0.0
  outer loop
    vertex 7.700000000000014 -1.8621778264910762 12.999999999999998
    vertex 9.149747468305826 -0.7497474683058414 17.999999999999996
    vertex 7.700000000000014 -1.8621778264910762 17.999999999999996
  endloop
endfacet
facet normal 0.7933533402912388 -0.6087614290087162 -0.0
  outer loop
    vertex 10.262177826491062 0.7000000000000044 12.999999999999998
    vertex 9.149747468305826 -0.7497474683058414 17.999999999999996
    vertex 9.149747468305826 -0.7497474683058414 12.999999999999998
  endloop
endfacet
facet normal 0.7933533402912388 -0.6087614290087162 -0.0
  outer loop
    vertex 9.149747468305826 -0.7497474683058414 17.999999999999996
    vertex 10.262177826491062 0.7000000000000044 12.999999999999998
    vertex 10.262177826491062 0.7000000000000044 17.999999999999996
  endloop
endfacet
facet normal 0.9238795325112864 -0.3826834323650911 -0.0
  outer loop
    vertex 10.961480784023474 2.3882666842823665 12.999999999999998
    vertex 10.262177826491062 0.7000000000000044 17.999999999999996
    vertex 10.262177826491062 0.7000000000000044 12.999999999999998
  endloop
endfacet
facet normal 0.9238795325112864 -0.3826834323650911 -0.0
  outer loop
    vertex 10.262177826491062 0.7000000000000044 17.999999999999996
    vertex 10.961480784023474 2.3882666842823665 12.999999999999998
    vertex 10.961480784023474 2.3882666842823665 17.999999999999996
  endloop
endfacet
facet normal 0.9914448613738109 -0.13052619222004852 -0.0
  outer loop
    vertex 11.19999999999999 4.200000000000015 12.999999999999998
    vertex 10.961480784023474 2.3882666842823665 17.999999999999996
    vertex 10.961480784023474 2.3882666842823665 12.999999999999998
  endloop
endfacet
facet normal 0.9914448613738109 -0.13052619222004852 -0.0
  outer loop
    vertex 10.961480784023474 2.3882666842823665 17.999999999999996
    vertex 11.19999999999999 4.200000000000015 12.999999999999998
    vertex 11.19999999999999 4.200000000000015 17.999999999999996
  endloop
endfacet
facet normal 0.9914448613738107 0.13052619222005013 -0.0
  outer loop
    vertex 10.961480784023474 6.01173331571764 12.999999999999998
    vertex 11.19999999999999 4.200000000000015 17.999999999999996
    vertex 11.19999999999999 4.200000000000015 12.999999999999998
  endloop
endfacet
facet normal 0.9914448613738107 0.13052619222005013 -0.0
  outer loop
    vertex 11.19999999999999 4.200000000000015 17.999999999999996
    vertex 10.961480784023474 6.01173331571764 12.999999999999998
    vertex 10.961480784023474 6.01173331571764 17.999999999999996
  endloop
endfacet
facet normal 0.9238795325112854 0.3826834323650931 -0.0
  outer loop
    vertex 10.262177826491062 7.699999999999991 12.999999999999998
    vertex 10.961480784023474 6.01173331571764 17.999999999999996
    vertex 10.961480784023474 6.01173331571764 12.999999999999998
  endloop
endfacet
facet normal 0.9238795325112854 0.3826834323650931 -0.0
  outer loop
    vertex 10.961480784023474 6.01173331571764 17.999999999999996
    vertex 10.262177826491062 7.699999999999991 12.999999999999998
    vertex 10.262177826491062 7.699999999999991 17.999999999999996
  endloop
endfacet
facet normal 0.7933533402912354 0.6087614290087207 -0.0
  outer loop
    vertex 9.149747468305826 9.14974746830582 12.999999999999998
    vertex 10.262177826491062 7.699999999999991 17.999999999999996
    vertex 10.262177826491062 7.699999999999991 12.999999999999998
  endloop
endfacet
facet normal 0.7933533402912354 0.6087614290087207 -0.0
  outer loop
    vertex 10.262177826491062 7.699999999999991 17.999999999999996
    vertex 9.149747468305826 9.14974746830582 12.999999999999998
    vertex 9.149747468305826 9.14974746830582 17.999999999999996
  endloop
endfacet
facet normal -0.0 -0.0 1.0
  outer loop
    vertex 1.5437039777050583 3.488247625968069 5.999999999999997
    vertex 1.5437039777050583 4.911752374031939 5.999999999999997
    vertex 1.4499999999999973 4.200000000000015 5.999999999999997
  endloop
endfacet
facet normal -0.0 -0.0 1.0
  outer loop
    vertex 1.5437039777050583 4.911752374031939 5.999999999999997
    vertex 1.5437039777050583 3.488247625968069 5.999999999999997
    vertex 1.8184301395927889 2.8250000000000117 5.999999999999997
  endloop
endfacet
facet normal -0.0 -0.0 1.0
  outer loop
    vertex 1.5437039777050583 4.911752374031939 5.999999999999997
    vertex 1.8184301395927889 2.8250000000000117 5.999999999999997
    vertex 1.8184301395927889 5.574999999999973 5.999999999999997
  endloop
endfacet
facet normal -0.0 -0.0 1.0
  outer loop
    vertex 1.8184301395927889 5.574999999999973 5.999999999999997
    vertex 1.8184301395927889 2.8250000000000117 5.999999999999997
    vertex 2.255456351736987 2.2554563517370156 5.999999999999997
  endloop
endfacet
facet normal -0.0 -0.0 1.0
  outer loop
    vertex 1.8184301395927889 5.574999999999973 5.999999999999997
    vertex 2.255456351736987 2.2554563517370156 5.999999999999997
    vertex 2.255456351736987 6.144543648262991 5.999999999999997
  endloop
endfacet
facet normal -0.0 -0.0 1.0
  outer loop
    vertex 2.255456351736987 6.144543648262991 5.999999999999997
    vertex 2.255456351736987 2.2554563517370156 5.999999999999997
    vertex 2.825000000000006 1.8184301395928057 5.999999999999997
  endloop
endfacet
facet normal -0.0 -0.0 1.0
  outer loop
    vertex 2.255456351736987 6.144543648262991 5.999999999999997
    vertex 2.825000000000006 1.8184301395928057 5.999999999999997
    vertex 2.8249999999999837 6.581569860407196 5.999999999999997
  endloop
endfacet
facet normal -0.0 -0.0 1.0
  outer loop
    vertex 2.8249999999999837 6.581569860407196 5.999999999999997
    vertex 2.825000000000006 1.8184301395928057 5.999999999999997
    vertex 3.488247625968063 6.856296022294915 5.999999999999997
  endloop
endfacet
facet normal -0.0 -0.0 1.0
  outer loop
    vertex 3.488247625968063 6.856296022294915 5.999999999999997
    vertex 2.825000000000006 1.8184301395928057 5.999999999999997
    vertex 3.488247625968063 1.5437039777050583 5.999999999999997
  endloop
endfacet
facet normal -0.0 -0.0 1.0
  outer loop
    vertex 3.488247625968063 6.856296022294915 5.999999999999997
    vertex 3.488247625968063 1.5437039777050583 5.999999999999997
    vertex 4.199999999999987 1.4499999999999973 5.999999999999997
  endloop
endfacet
facet normal -0.0 -0.0 1.0
  outer loop
    vertex 3.488247625968063 6.856296022294915 5.999999999999997
    vertex 4.199999999999987 1.4499999999999973 5.999999999999997
    vertex 4.199999999999987 6.9499999999999815 5.999999999999997
  endloop
endfacet
facet normal -0.0 -0.0 1.0
  outer loop
    vertex 4.199999999999987 6.9499999999999815 5.999999999999997
    vertex 4.199999999999987 1.4499999999999973 5.999999999999997
    vertex 4.911752374031939 1.5437039777050583 5.999999999999997
  endloop
endfacet
facet normal -0.0 -0.0 1.0
  outer loop
    vertex 4.199999999999987 6.9499999999999815 5.999999999999997
    vertex 4.911752374031939 1.5437039777050583 5.999999999999997
    vertex 4.911752374031939 6.856296022294915 5.999999999999997
  endloop
endfacet
facet normal -0.0 -0.0 1.0
  outer loop
    vertex 4.911752374031939 6.856296022294915 5.999999999999997
    vertex 4.911752374031939 1.5437039777050583 5.999999999999997
    vertex 5.574999999999996 1.8184301395928057 5.999999999999997
  endloop
endfacet
facet normal -0.0 -0.0 1.0
  outer loop
    vertex 4.911752374031939 6.856296022294915 5.999999999999997
    vertex 5.574999999999996 1.8184301395928057 5.999999999999997
    vertex 5.574999999999996 6.581569860407196 5.999999999999997
  endloop
endfacet
facet normal -0.0 -0.0 1.0
  outer loop
    vertex 5.574999999999996 6.581569860407196 5.999999999999997
    vertex 5.574999999999996 1.8184301395928057 5.999999999999997
    vertex 6.144543648262991 2.2554563517370156 5.999999999999997
  endloop
endfacet
facet normal -0.0 -0.0 1.0
  outer loop
    vertex 5.574999999999996 6.581569860407196 5.999999999999997
    vertex 6.144543648262991 2.2554563517370156 5.999999999999997
    vertex 6.144543648262991 6.144543648262991 5.999999999999997
  endloop
endfacet
facet normal -0.0 -0.0 1.0
  outer loop
    vertex 6.144543648262991 6.144543648262991 5.999999999999997
    vertex 6.144543648262991 2.2554563517370156 5.999999999999997
    vertex 6.581569860407196 2.8250000000000117 5.999999999999997
  endloop
endfacet
facet normal -0.0 -0.0 1.0
  outer loop
    vertex 6.144543648262991 6.144543648262991 5.999999999999997
    vertex 6.581569860407196 2.8250000000000117 5.999999999999997
    vertex 6.581569860407196 5.574999999999996 5.999999999999997
  endloop
endfacet
facet normal -0.0 -0.0 1.0
  outer loop
    vertex 6.581569860407196 5.574999999999996 5.999999999999997
    vertex 6.581569860407196 2.8250000000000117 5.999999999999997
    vertex 6.856296022294938 3.488247625968069 5.999999999999997
  endloop
endfacet
facet normal -0.0 -0.0 1.0
  outer loop
    vertex 6.581569860407196 5.574999999999996 5.999999999999997
    vertex 6.856296022294938 3.488247625968069 5.999999999999997
    vertex 6.856296022294938 4.911752374031939 5.999999999999997
  endloop
endfacet
facet normal -0.0 -0.0 1.0
  outer loop
    vertex 6.856296022294938 4.911752374031939 5.999999999999997
    vertex 6.856296022294938 3.488247625968069 5.999999999999997
    vertex 6.950000000000005 4.200000000000015 5.999999999999997
  endloop
endfacet
facet normal -0.7933533402912278 -0.6087614290087303 0.0
  outer loop
    vertex 6.144543648262991 6.144543648262991 17.999999999999996
    vertex 6.581569860407196 5.574999999999996 5.999999999999997
    vertex 6.581569860407196 5.574999999999996 17.999999999999996
  endloop
endfacet
facet normal -0.7933533402912278 -0.6087614290087303 0.0
  outer loop
    vertex 6.581569860407196 5.574999999999996 5.999999999999997
    vertex 6.144543648262991 6.144543648262991 17.999999999999996
    vertex 6.144543648262991 6.144543648262991 5.999999999999997
  endloop
endfacet
facet normal -0.6087614290087303 -0.7933533402912278 0.0
  outer loop
    vertex 6.144543648262991 6.144543648262991 17.999999999999996
    vertex 5.574999999999996 6.581569860407196 5.999999999999997
    vertex 6.144543648262991 6.144543648262991 5.999999999999997
  endloop
endfacet
facet normal -0.6087614290087303 -0.7933533402912278 0.0
  outer loop
    vertex 5.574999999999996 6.581569860407196 5.999999999999997
    vertex 6.144543648262991 6.144543648262991 17.999999999999996
    vertex 5.574999999999996 6.581569860407196 17.999999999999996
  endloop
endfacet
facet normal -0.3826834323650807 -0.9238795325112907 0.0
  outer loop
    vertex 5.574999999999996 6.581569860407196 17.999999999999996
    vertex 4.911752374031939 6.856296022294915 5.999999999999997
    vertex 5.574999999999996 6.581569860407196 5.999999999999997
  endloop
endfacet
facet normal -0.3826834323650807 -0.9238795325112907 0.0
  outer loop
    vertex 4.911752374031939 6.856296022294915 5.999999999999997
    vertex 5.574999999999996 6.581569860407196 17.999999999999996
    vertex 4.911752374031939 6.856296022294915 17.999999999999996
  endloop
endfacet
facet normal -0.13052619222005402 -0.9914448613738103 0.0
  outer loop
    vertex 4.911752374031939 6.856296022294915 17.999999999999996
    vertex 4.199999999999987 6.9499999999999815 5.999999999999997
    vertex 4.911752374031939 6.856296022294915 5.999999999999997
  endloop
endfacet
facet normal -0.13052619222005402 -0.9914448613738103 0.0
  outer loop
    vertex 4.199999999999987 6.9499999999999815 5.999999999999997
    vertex 4.911752374031939 6.856296022294915 17.999999999999996
    vertex 4.199999999999987 6.9499999999999815 17.999999999999996
  endloop
endfacet
facet normal 0.13052619222005912 -0.9914448613738096 0.0
  outer loop
    vertex 4.199999999999987 6.9499999999999815 17.999999999999996
    vertex 3.488247625968063 6.856296022294915 5.999999999999997
    vertex 4.199999999999987 6.9499999999999815 5.999999999999997
  endloop
endfacet
facet normal 0.13052619222005912 -0.9914448613738096 0.0
  outer loop
    vertex 3.488247625968063 6.856296022294915 5.999999999999997
    vertex 4.199999999999987 6.9499999999999815 17.999999999999996
    vertex 3.488247625968063 6.856296022294915 17.999999999999996
  endloop
endfacet
facet normal 0.3826834323650695 -0.9238795325112953 0.0
  outer loop
    vertex 3.488247625968063 6.856296022294915 17.999999999999996
    vertex 2.8249999999999837 6.581569860407196 5.999999999999997
    vertex 3.488247625968063 6.856296022294915 5.999999999999997
  endloop
endfacet
facet normal 0.3826834323650695 -0.9238795325112953 0.0
  outer loop
    vertex 2.8249999999999837 6.581569860407196 5.999999999999997
    vertex 3.488247625968063 6.856296022294915 17.999999999999996
    vertex 2.8249999999999837 6.581569860407196 17.999999999999996
  endloop
endfacet
facet normal 0.6087614290087303 -0.7933533402912278 0.0
  outer loop
    vertex 2.8249999999999837 6.581569860407196 17.999999999999996
    vertex 2.255456351736987 6.144543648262991 5.999999999999997
    vertex 2.8249999999999837 6.581569860407196 5.999999999999997
  endloop
endfacet
facet normal 0.6087614290087303 -0.7933533402912278 0.0
  outer loop
    vertex 2.255456351736987 6.144543648262991 5.999999999999997
    vertex 2.8249999999999837 6.581569860407196 17.999999999999996
    vertex 2.255456351736987 6.144543648262991 17.999999999999996
  endloop
endfacet
facet normal 0.7933533402912433 -0.6087614290087101 -0.0
  outer loop
    vertex 2.255456351736987 6.144543648262991 5.999999999999997
    vertex 1.8184301395927889 5.574999999999973 17.999999999999996
    vertex 1.8184301395927889 5.574999999999973 5.999999999999997
  endloop
endfacet
facet normal 0.7933533402912433 -0.6087614290087101 -0.0
  outer loop
    vertex 1.8184301395927889 5.574999999999973 17.999999999999996
    vertex 2.255456351736987 6.144543648262991 5.999999999999997
    vertex 2.255456351736987 6.144543648262991 17.999999999999996
  endloop
endfacet
facet normal 0.9238795325112805 -0.3826834323651052 -0.0
  outer loop
    vertex 1.8184301395927889 5.574999999999973 5.999999999999997
    vertex 1.5437039777050583 4.911752374031939 17.999999999999996
    vertex 1.5437039777050583 4.911752374031939 5.999999999999997
  endloop
endfacet
facet normal 0.9238795325112805 -0.3826834323651052 -0.0
  outer loop
    vertex 1.5437039777050583 4.911752374031939 17.999999999999996
    vertex 1.8184301395927889 5.574999999999973 5.999999999999997
    vertex 1.8184301395927889 5.574999999999973 17.999999999999996
  endloop
endfacet
facet normal 0.9914448613738105 -0.13052619222005138 -0.0
  outer loop
    vertex 1.5437039777050583 4.911752374031939 5.999999999999997
    vertex 1.4499999999999973 4.200000000000015 17.999999999999996
    vertex 1.4499999999999973 4.200000000000015 5.999999999999997
  endloop
endfacet
facet normal 0.9914448613738105 -0.13052619222005138 -0.0
  outer loop
    vertex 1.4499999999999973 4.200000000000015 17.999999999999996
    vertex 1.5437039777050583 4.911752374031939 5.999999999999997
    vertex 1.5437039777050583 4.911752374031939 17.999999999999996
  endloop
endfacet
facet normal 0.9914448613738109 0.1305261922200473 -0.0
  outer loop
    vertex 1.4499999999999973 4.200000000000015 5.999999999999997
    vertex 1.5437039777050583 3.488247625968069 17.999999999999996
    vertex 1.5437039777050583 3.488247625968069 5.999999999999997
  endloop
endfacet
facet normal 0.9914448613738109 0.1305261922200473 -0.0
  outer loop
    vertex 1.5437039777050583 3.488247625968069 17.999999999999996
    vertex 1.4499999999999973 4.200000000000015 5.999999999999997
    vertex 1.4499999999999973 4.200000000000015 17.999999999999996
  endloop
endfacet
facet normal 0.9238795325112852 0.3826834323650941 -0.0
  outer loop
    vertex 1.5437039777050583 3.488247625968069 5.999999999999997
    vertex 1.8184301395927889 2.8250000000000117 17.999999999999996
    vertex 1.8184301395927889 2.8250000000000117 5.999999999999997
  endloop
endfacet
facet normal 0.9238795325112852 0.3826834323650941 -0.0
  outer loop
    vertex 1.8184301395927889 2.8250000000000117 17.999999999999996
    vertex 1.5437039777050583 3.488247625968069 5.999999999999997
    vertex 1.5437039777050583 3.488247625968069 17.999999999999996
  endloop
endfacet
facet normal 0.7933533402912316 0.6087614290087253 -0.0
  outer loop
    vertex 1.8184301395927889 2.8250000000000117 5.999999999999997
    vertex 2.255456351736987 2.2554563517370156 17.999999999999996
    vertex 2.255456351736987 2.2554563517370156 5.999999999999997
  endloop
endfacet
facet normal 0.7933533402912316 0.6087614290087253 -0.0
  outer loop
    vertex 2.255456351736987 2.2554563517370156 17.999999999999996
    vertex 1.8184301395927889 2.8250000000000117 5.999999999999997
    vertex 1.8184301395927889 2.8250000000000117 17.999999999999996
  endloop
endfacet
facet normal 0.60876142900872 0.7933533402912357 -0.0
  outer loop
    vertex 2.255456351736987 2.2554563517370156 17.999999999999996
    vertex 2.825000000000006 1.8184301395928057 5.999999999999997
    vertex 2.255456351736987 2.2554563517370156 5.999999999999997
  endloop
endfacet
facet normal 0.60876142900872 0.7933533402912357 -0.0
  outer loop
    vertex 2.825000000000006 1.8184301395928057 5.999999999999997
    vertex 2.255456351736987 2.2554563517370156 17.999999999999996
    vertex 2.825000000000006 1.8184301395928057 17.999999999999996
  endloop
endfacet
facet normal 0.3826834323651141 0.9238795325112766 -0.0
  outer loop
    vertex 2.825000000000006 1.8184301395928057 17.999999999999996
    vertex 3.488247625968063 1.5437039777050583 5.999999999999997
    vertex 2.825000000000006 1.8184301395928057 5.999999999999997
  endloop
endfacet
facet normal 0.3826834323651141 0.9238795325112766 -0.0
  outer loop
    vertex 3.488247625968063 1.5437039777050583 5.999999999999997
    vertex 2.825000000000006 1.8184301395928057 17.999999999999996
    vertex 3.488247625968063 1.5437039777050583 17.999999999999996
  endloop
endfacet
facet normal 0.13052619222005138 0.9914448613738105 -0.0
  outer loop
    vertex 3.488247625968063 1.5437039777050583 17.999999999999996
    vertex 4.199999999999987 1.4499999999999973 5.999999999999997
    vertex 3.488247625968063 1.5437039777050583 5.999999999999997
  endloop
endfacet
facet normal 0.13052619222005138 0.9914448613738105 -0.0
  outer loop
    vertex 4.199999999999987 1.4499999999999973 5.999999999999997
    vertex 3.488247625968063 1.5437039777050583 17.999999999999996
    vertex 4.199999999999987 1.4499999999999973 17.999999999999996
  endloop
endfacet
facet normal -0.13052619222004627 0.9914448613738112 -0.0
  outer loop
    vertex 4.199999999999987 1.4499999999999973 17.999999999999996
    vertex 4.911752374031939 1.5437039777050583 5.999999999999997
    vertex 4.199999999999987 1.4499999999999973 5.999999999999997
  endloop
endfacet
facet normal -0.13052619222004627 0.9914448613738112 -0.0
  outer loop
    vertex 4.911752374031939 1.5437039777050583 5.999999999999997
    vertex 4.199999999999987 1.4499999999999973 17.999999999999996
    vertex 4.911752374031939 1.5437039777050583 17.999999999999996
  endloop
endfacet
facet normal -0.3826834323651141 0.9238795325112766 -0.0
  outer loop
    vertex 4.911752374031939 1.5437039777050583 17.999999999999996
    vertex 5.574999999999996 1.8184301395928057 5.999999999999997
    vertex 4.911752374031939 1.5437039777050583 5.999999999999997
  endloop
endfacet
facet normal -0.3826834323651141 0.9238795325112766 -0.0
  outer loop
    vertex 5.574999999999996 1.8184301395928057 5.999999999999997
    vertex 4.911752374031939 1.5437039777050583 17.999999999999996
    vertex 5.574999999999996 1.8184301395928057 17.999999999999996
  endloop
endfacet
facet normal -0.6087614290087352 0.793353340291224 -0.0
  outer loop
    vertex 5.574999999999996 1.8184301395928057 17.999999999999996
    vertex 6.144543648262991 2.2554563517370156 5.999999999999997
    vertex 5.574999999999996 1.8184301395928057 5.999999999999997
  endloop
endfacet
facet normal -0.6087614290087352 0.793353340291224 -0.0
  outer loop
    vertex 6.144543648262991 2.2554563517370156 5.999999999999997
    vertex 5.574999999999996 1.8184301395928057 17.999999999999996
    vertex 6.144543648262991 2.2554563517370156 17.999999999999996
  endloop
endfacet
facet normal -0.7933533402912278 0.6087614290087303 0.0
  outer loop
    vertex 6.581569860407196 2.8250000000000117 17.999999999999996
    vertex 6.144543648262991 2.2554563517370156 5.999999999999997
    vertex 6.144543648262991 2.2554563517370156 17.999999999999996
  endloop
endfacet
facet normal -0.7933533402912278 0.6087614290087303 0.0
  outer loop
    vertex 6.144543648262991 2.2554563517370156 5.999999999999997
    vertex 6.581569860407196 2.8250000000000117 17.999999999999996
    vertex 6.581569860407196 2.8250000000000117 5.999999999999997
  endloop
endfacet
facet normal -0.9238795325112795 0.3826834323651075 0.0
  outer loop
    vertex 6.856296022294938 3.488247625968069 17.999999999999996
    vertex 6.581569860407196 2.8250000000000117 5.999999999999997
    vertex 6.581569860407196 2.8250000000000117 17.999999999999996
  endloop
endfacet
facet normal -0.9238795325112795 0.3826834323651075 0.0
  outer loop
    vertex 6.581569860407196 2.8250000000000117 5.999999999999997
    vertex 6.856296022294938 3.488247625968069 17.999999999999996
    vertex 6.856296022294938 3.488247625968069 5.999999999999997
  endloop
endfacet
facet normal -0.99144486137381 0.13052619222005502 0.0
  outer loop
    vertex 6.950000000000005 4.200000000000015 17.999999999999996
    vertex 6.856296022294938 3.488247625968069 5.999999999999997
    vertex 6.856296022294938 3.488247625968069 17.999999999999996
  endloop
endfacet
facet normal -0.99144486137381 0.13052619222005502 0.0
  outer loop
    vertex 6.856296022294938 3.488247625968069 5.999999999999997
    vertex 6.950000000000005 4.200000000000015 17.999999999999996
    vertex 6.950000000000005 4.200000000000015 5.999999999999997
  endloop
endfacet
facet normal -0.9914448613738096 -0.13052619222005912 0.0
  outer loop
    vertex 6.856296022294938 4.911752374031939 17.999999999999996
    vertex 6.950000000000005 4.200000000000015 5.999999999999997
    vertex 6.950000000000005 4.200000000000015 17.999999999999996
  endloop
endfacet
facet normal -0.9914448613738096 -0.13052619222005912 0.0
  outer loop
    vertex 6.950000000000005 4.200000000000015 5.999999999999997
    vertex 6.856296022294938 4.911752374031939 17.999999999999996
    vertex 6.856296022294938 4.911752374031939 5.999999999999997
  endloop
endfacet
facet normal -0.9238795325112795 -0.3826834323651075 0.0
  outer loop
    vertex 6.581569860407196 5.574999999999996 17.999999999999996
    vertex 6.856296022294938 4.911752374031939 5.999999999999997
    vertex 6.856296022294938 4.911752374031939 17.999999999999996
  endloop
endfacet
facet normal -0.9238795325112795 -0.3826834323651075 0.0
  outer loop
    vertex 6.856296022294938 4.911752374031939 5.999999999999997
    vertex 6.581569860407196 5.574999999999996 17.999999999999996
    vertex 6.581569860407196 5.574999999999996 5.999999999999997
  endloop
endfacet
endsolid Paul - Kühlschrankscharnier
